<svg width="47" height="30" viewBox="0 0 47 30" fill="none" xmlns="http://www.w3.org/2000/svg">
<rect width="46.5688" height="29.7248" fill="white"/>
<path d="M27.125 4H18.875C15.0786 4 12 7.07863 12 10.875V19.125C12 22.9214 15.0786 26 18.875 26H27.125C30.9214 26 34 22.9214 34 19.125V10.875C34 7.07863 30.9214 4 27.125 4ZM31.9375 19.125C31.9375 21.7787 29.7787 23.9375 27.125 23.9375H18.875C16.2213 23.9375 14.0625 21.7787 14.0625 19.125V10.875C14.0625 8.22125 16.2213 6.0625 18.875 6.0625H27.125C29.7787 6.0625 31.9375 8.22125 31.9375 10.875V19.125Z" fill="#202020"/>
<path d="M23 9.5C19.9626 9.5 17.5 11.9626 17.5 15C17.5 18.0374 19.9626 20.5 23 20.5C26.0374 20.5 28.5 18.0374 28.5 15C28.5 11.9626 26.0374 9.5 23 9.5ZM23 18.4375C21.1052 18.4375 19.5625 16.8948 19.5625 15C19.5625 13.1039 21.1052 11.5625 23 11.5625C24.8948 11.5625 26.4375 13.1039 26.4375 15C26.4375 16.8948 24.8948 18.4375 23 18.4375Z" fill="#202020"/>
<path d="M28.9126 9.82037C29.3173 9.82037 29.6454 9.49225 29.6454 9.0875C29.6454 8.68274 29.3173 8.35462 28.9126 8.35462C28.5078 8.35462 28.1797 8.68274 28.1797 9.0875C28.1797 9.49225 28.5078 9.82037 28.9126 9.82037Z" fill="#202020"/>
</svg>
