<svg width="47" height="30" viewBox="0 0 47 30" fill="none" xmlns="http://www.w3.org/2000/svg">
<rect y="0.275269" width="46.5688" height="29.7248" fill="white"/>
<path fill-rule="evenodd" clip-rule="evenodd" d="M8.00116 9L10.2305 19.4872H10.7486L12.9776 9H16.9788V20H14.9558V10.8241L15.3324 9.51278H14.6796L12.3565 20H8.63813L6.29898 9.51278H5.66234L6.02297 10.8241V20H4V9H8.00116ZM43 9.05468V11.3638L38.5434 14.5003L43 17.636V19.9457L37.7428 16.1844H37.1778L31.9362 19.9457V17.6359L36.3775 14.5003L31.9362 11.3641V9.05468L37.1778 12.8312H37.7428L43 9.05468ZM30.2128 13.4989V15.5014H19.1197V13.4987L30.2128 13.4989Z" fill="black"/>
</svg>
