<svg width="47" height="30" viewBox="0 0 47 30" fill="none" xmlns="http://www.w3.org/2000/svg">
<rect width="46.5688" height="29.7248" fill="white"/>
<g clip-path="url(#clip0)">
<path d="M37.8227 19.3304C38.0229 19.1315 38.1469 18.8564 38.1469 18.5448C38.1469 18.2465 38.0102 17.978 37.8259 17.7825L29.4316 9.0288L26.8984 11.6705L33.5064 18.5614H24.1459C23.6882 18.5481 23.3258 18.3857 23.0175 18.0775L18.8188 13.6957C18.3834 13.2648 17.7858 12.993 17.1406 12.993C17.1374 12.993 17.1374 12.993 17.1342 12.993H12.0042V11.1634H17.3154C18.3675 11.1634 19.3051 11.6141 19.9948 12.3334L23.1288 15.6015L25.662 12.9598L22.4645 9.63204C21.1295 8.25982 19.3273 7.43119 17.3059 7.43119C17.3027 7.43119 17.3027 7.43119 17.2995 7.43119H8.42212V16.7318H15.936C16.4254 16.7351 16.8672 16.9439 17.1851 17.282L21.298 21.571C21.7175 21.9986 22.2833 22.2704 22.9094 22.2936H34.2756C34.7555 22.2869 35.1846 22.0814 35.5024 21.7533L37.8227 19.3304Z" fill="#202020"/>
</g>
<defs>
<clipPath id="clip0">
<rect width="29.7248" height="14.8624" fill="white" transform="translate(8.42212 7.43119)"/>
</clipPath>
</defs>
</svg>
