<svg width="47" height="30" viewBox="0 0 47 30" fill="none" xmlns="http://www.w3.org/2000/svg">
<rect width="46.5688" height="29.7248" fill="white"/>
<g clip-path="url(#clip0)">
<path d="M9.41284 19.6249C9.41284 19.9574 9.53171 20.2087 9.7694 20.3791C10.0071 20.5495 10.2612 20.6097 10.5317 20.5599C10.7858 20.51 10.9641 20.4186 11.0665 20.2856C11.169 20.1527 11.2202 19.9324 11.2202 19.6249V16.0099C11.2202 15.7522 11.1321 15.5341 10.9559 15.3554C10.7797 15.1768 10.5645 15.0874 10.3104 15.0874C10.0645 15.0874 9.85345 15.1768 9.67721 15.3554C9.50097 15.5341 9.41284 15.7522 9.41284 16.0099V19.6249ZM12.2407 21.1707C12.2407 21.4117 12.3247 21.5924 12.4927 21.713C12.6608 21.8335 12.876 21.8937 13.1382 21.8937C13.4087 21.8937 13.628 21.8334 13.796 21.713C13.964 21.5925 14.0481 21.4117 14.0481 21.1707V12.7439C14.0481 12.4946 13.9599 12.2806 13.7837 12.1019C13.6075 11.9232 13.3923 11.8339 13.1382 11.8339C12.8923 11.8339 12.6813 11.9232 12.505 12.1019C12.3288 12.2806 12.2407 12.4946 12.2407 12.7439V21.1707ZM15.0563 21.5696C15.0563 21.8106 15.1423 21.9913 15.3145 22.1119C15.4866 22.2323 15.7079 22.2926 15.9784 22.2926C16.2407 22.2926 16.4558 22.2323 16.6239 22.1119C16.7919 21.9913 16.8759 21.8106 16.8759 21.5696V13.8783C16.8759 13.6206 16.7878 13.4004 16.6116 13.2176C16.4354 13.0348 16.2243 12.9434 15.9784 12.9434C15.7243 12.9434 15.5071 13.0348 15.3268 13.2176C15.1465 13.4004 15.0563 13.6206 15.0563 13.8783V21.5696H15.0563ZM17.8841 21.607C17.8841 22.0641 18.1874 22.2926 18.7939 22.2926C19.4005 22.2926 19.7037 22.0641 19.7037 21.607V9.14131C19.7037 8.44324 19.4947 8.0485 19.0767 7.95708C18.8062 7.89058 18.5398 7.96954 18.2775 8.19392C18.0152 8.4183 17.8841 8.73408 17.8841 9.14131V21.607H17.8841ZM20.7612 21.9685V8.40584C20.7612 7.9737 20.8882 7.71609 21.1423 7.63297C21.6915 7.50001 22.2366 7.43352 22.7776 7.43352C24.0316 7.43352 25.1997 7.73269 26.2816 8.33104C27.3636 8.9294 28.2386 9.7459 28.9066 10.7805C29.5746 11.8152 29.9619 12.9558 30.0685 14.2024C30.5685 13.9863 31.1012 13.8783 31.6668 13.8783C32.8143 13.8783 33.7959 14.2897 34.6115 15.1124C35.427 15.9351 35.8348 16.9241 35.8348 18.0792C35.8348 19.2427 35.427 20.2358 34.6115 21.0585C33.7959 21.8813 32.8185 22.2926 31.6791 22.2926L20.9824 22.2802C20.9086 22.2552 20.8533 22.2095 20.8164 22.143C20.7795 22.0766 20.7612 22.0183 20.7612 21.9685Z" fill="#202020"/>
</g>
<defs>
<clipPath id="clip0">
<rect width="26.422" height="14.8624" fill="white" transform="translate(9.41284 7.43119)"/>
</clipPath>
</defs>
</svg>
